<?xml version="1.0" standalone="no"?>
<!DOCTYPE svg PUBLIC "-//W3C//DTD SVG 20010904//EN"
 "http://www.w3.org/TR/2001/REC-SVG-20010904/DTD/svg10.dtd">
<svg version="1.0" xmlns="http://www.w3.org/2000/svg"
 width="200.000000pt" height="200.000000pt" viewBox="0 0 200.000000 200.000000"
 preserveAspectRatio="xMidYMid meet">
<metadata>
Created by potrace 1.11, written by Peter Selinger 2001-2013
</metadata>
<g transform="translate(0.000000,200.000000) scale(0.100000,-0.100000)"
fill="#000000" stroke="none">
<path d="M318 1324 l-36 -67 -15 29 -15 29 -43 -88 c-53 -112 -58 -167 -16
-203 37 -31 86 -32 119 -1 14 13 27 29 30 37 3 10 12 8 35 -10 67 -49 152 7
139 92 -6 39 -44 130 -74 176 -13 21 -15 21 -27 5 -11 -15 -15 -12 -34 25 -12
23 -23 42 -24 42 -1 0 -19 -30 -39 -66z"/>
<path d="M1699 1263 c-1 -18 -1 -245 0 -274 1 -11 10 -15 29 -14 26 1 27 2 28
67 2 72 16 108 42 108 33 0 42 -22 42 -102 l0 -79 28 4 c27 4 27 4 30 90 3 81
1 89 -21 111 -24 24 -53 27 -103 11 -19 -6 -20 -3 -17 44 l5 51 -31 0 c-22 0
-31 -5 -32 -17z"/>
<path d="M870 1118 l36 -142 32 -2 c18 -1 35 2 38 7 3 5 16 50 28 101 15 58
26 84 29 72 3 -10 11 -38 16 -61 31 -125 29 -119 60 -119 17 1 34 6 39 11 7 8
72 250 72 270 0 3 -13 5 -29 5 -30 0 -30 0 -47 -80 -2 -14 -11 -50 -18 -80
-13 -52 -14 -54 -21 -25 -4 17 -16 65 -28 108 -20 77 -21 78 -51 75 -30 -3
-31 -4 -55 -108 l-25 -105 -25 108 -25 107 -31 0 -32 0 37 -142z"/>
<path d="M672 1189 c-76 -28 -73 -180 4 -209 33 -13 90 -13 114 0 19 10 20 47
1 42 -61 -13 -111 -1 -111 29 0 15 9 19 68 21 64 3 67 4 68 28 2 70 -72 115
-144 89z m78 -43 c0 -2 3 -11 6 -20 5 -13 -2 -16 -35 -16 -39 0 -53 14 -34 33
7 8 63 10 63 3z"/>
<path d="M1300 1193 c-8 -2 -21 -6 -28 -9 -9 -3 -10 -9 -3 -23 9 -15 18 -18
54 -14 38 5 45 2 49 -15 5 -17 0 -20 -43 -24 -28 -3 -58 -13 -69 -23 -26 -24
-25 -70 1 -96 17 -17 29 -20 62 -16 23 3 43 11 45 17 3 7 10 6 22 -5 9 -8 24
-13 33 -10 22 9 17 176 -6 200 -17 16 -88 27 -117 18z m80 -132 c0 -15 -28
-45 -43 -47 -9 -1 -22 5 -29 13 -10 13 -9 18 10 33 20 17 62 17 62 1z"/>
<path d="M1533 1193 c-39 -7 -60 -50 -41 -86 5 -10 29 -28 54 -39 24 -12 44
-27 44 -34 0 -14 -24 -25 -42 -20 -55 17 -68 16 -65 -5 5 -28 24 -39 70 -39
63 0 97 24 97 71 0 30 -21 51 -73 73 -49 20 -40 40 14 33 31 -4 41 -1 49 13 6
10 6 21 1 24 -12 8 -82 14 -108 9z"/>
<path d="M279 945 c-2 -2 -20 -6 -39 -9 -21 -3 -45 -16 -59 -33 -25 -29 -27
-30 -61 -32 -24 -1 -27 -26 -5 -39 13 -6 14 -14 6 -35 -10 -25 -7 -169 3 -186
3 -5 17 -6 31 -3 19 3 25 11 25 29 0 15 4 22 11 18 6 -4 80 -7 165 -7 85 0
152 -3 149 -8 -12 -20 7 -38 32 -31 24 6 26 11 30 81 2 41 0 88 -5 104 -6 23
-4 34 11 49 23 23 19 28 -22 29 -21 1 -36 9 -46 25 -9 13 -28 29 -43 35 -26
10 -176 21 -183 13z m213 -65 c21 -23 38 -46 38 -50 0 -5 -86 -8 -190 -8
l-190 1 16 26 c47 75 59 79 199 76 l89 -2 38 -43z m-294 -102 c17 -17 15 -36
-7 -47 -27 -15 -52 7 -40 37 9 24 28 29 47 10z m331 -2 c24 -29 -13 -65 -44
-42 -14 10 -15 16 -6 34 13 25 33 28 50 8z"/>
</g>
</svg>
